<mxfile host="app.diagrams.net" modified="2023-01-14T04:55:41.273Z" agent="5.0 (Windows)" version="20.8.0" etag="373lkndF6dr0nnSSBvI7" type="github">
  <diagram id="m4bZhgMgDNycF2D5sX4h" name="第 1 页">
    <mxGraphModel dx="1221" dy="733" grid="1" gridSize="10" guides="1" tooltips="1" connect="1" arrows="1" fold="1" page="1" pageScale="1" pageWidth="827" pageHeight="1169" math="0" shadow="0">
      <root>
        <mxCell id="0" />
        <mxCell id="1" parent="0" />
        <mxCell id="a7oZwAb7tFa-syhKgHfZ-2" value="训练集" style="rounded=1;whiteSpace=wrap;html=1;" vertex="1" parent="1">
          <mxGeometry x="50" y="200" width="140" height="40" as="geometry" />
        </mxCell>
        <mxCell id="a7oZwAb7tFa-syhKgHfZ-3" value="X" style="rounded=0;whiteSpace=wrap;html=1;" vertex="1" parent="1">
          <mxGeometry x="50" y="270" width="90" height="230" as="geometry" />
        </mxCell>
        <mxCell id="a7oZwAb7tFa-syhKgHfZ-4" value="Y" style="rounded=0;whiteSpace=wrap;html=1;" vertex="1" parent="1">
          <mxGeometry x="150" y="270" width="40" height="230" as="geometry" />
        </mxCell>
        <mxCell id="a7oZwAb7tFa-syhKgHfZ-5" value="" style="shape=flexArrow;endArrow=classic;html=1;rounded=0;" edge="1" parent="1">
          <mxGeometry width="50" height="50" relative="1" as="geometry">
            <mxPoint x="230" y="290" as="sourcePoint" />
            <mxPoint x="290" y="250" as="targetPoint" />
          </mxGeometry>
        </mxCell>
        <mxCell id="a7oZwAb7tFa-syhKgHfZ-6" value="" style="shape=flexArrow;endArrow=classic;html=1;rounded=0;" edge="1" parent="1">
          <mxGeometry width="50" height="50" relative="1" as="geometry">
            <mxPoint x="230" y="370" as="sourcePoint" />
            <mxPoint x="300" y="370" as="targetPoint" />
          </mxGeometry>
        </mxCell>
        <mxCell id="a7oZwAb7tFa-syhKgHfZ-8" value="" style="shape=flexArrow;endArrow=classic;html=1;rounded=0;" edge="1" parent="1">
          <mxGeometry width="50" height="50" relative="1" as="geometry">
            <mxPoint x="230" y="460" as="sourcePoint" />
            <mxPoint x="290" y="490" as="targetPoint" />
          </mxGeometry>
        </mxCell>
        <mxCell id="a7oZwAb7tFa-syhKgHfZ-24" value="" style="edgeStyle=orthogonalEdgeStyle;rounded=0;orthogonalLoop=1;jettySize=auto;html=1;entryX=0;entryY=0.5;entryDx=0;entryDy=0;" edge="1" parent="1" source="a7oZwAb7tFa-syhKgHfZ-10" target="a7oZwAb7tFa-syhKgHfZ-20">
          <mxGeometry relative="1" as="geometry" />
        </mxCell>
        <mxCell id="a7oZwAb7tFa-syhKgHfZ-10" value="LightGBM" style="rounded=1;whiteSpace=wrap;html=1;" vertex="1" parent="1">
          <mxGeometry x="320" y="350" width="100" height="40" as="geometry" />
        </mxCell>
        <mxCell id="a7oZwAb7tFa-syhKgHfZ-23" value="" style="edgeStyle=orthogonalEdgeStyle;rounded=0;orthogonalLoop=1;jettySize=auto;html=1;" edge="1" parent="1" source="a7oZwAb7tFa-syhKgHfZ-11" target="a7oZwAb7tFa-syhKgHfZ-19">
          <mxGeometry relative="1" as="geometry">
            <Array as="points">
              <mxPoint x="470" y="260" />
              <mxPoint x="470" y="260" />
            </Array>
          </mxGeometry>
        </mxCell>
        <mxCell id="a7oZwAb7tFa-syhKgHfZ-11" value="XGBoost" style="rounded=1;whiteSpace=wrap;html=1;" vertex="1" parent="1">
          <mxGeometry x="320" y="240" width="100" height="40" as="geometry" />
        </mxCell>
        <mxCell id="a7oZwAb7tFa-syhKgHfZ-25" value="" style="edgeStyle=orthogonalEdgeStyle;rounded=0;orthogonalLoop=1;jettySize=auto;html=1;entryX=0.039;entryY=0.332;entryDx=0;entryDy=0;entryPerimeter=0;" edge="1" parent="1" source="a7oZwAb7tFa-syhKgHfZ-12" target="a7oZwAb7tFa-syhKgHfZ-21">
          <mxGeometry relative="1" as="geometry" />
        </mxCell>
        <mxCell id="a7oZwAb7tFa-syhKgHfZ-12" value="CatBoost" style="rounded=1;whiteSpace=wrap;html=1;" vertex="1" parent="1">
          <mxGeometry x="320" y="460" width="100" height="40" as="geometry" />
        </mxCell>
        <mxCell id="a7oZwAb7tFa-syhKgHfZ-19" value="Y1" style="rounded=0;whiteSpace=wrap;html=1;" vertex="1" parent="1">
          <mxGeometry x="460" y="180" width="30" height="120" as="geometry" />
        </mxCell>
        <mxCell id="a7oZwAb7tFa-syhKgHfZ-20" value="Y2" style="rounded=0;whiteSpace=wrap;html=1;" vertex="1" parent="1">
          <mxGeometry x="460" y="310" width="30" height="120" as="geometry" />
        </mxCell>
        <mxCell id="a7oZwAb7tFa-syhKgHfZ-21" value="Y3" style="rounded=0;whiteSpace=wrap;html=1;" vertex="1" parent="1">
          <mxGeometry x="460" y="440" width="30" height="120" as="geometry" />
        </mxCell>
        <mxCell id="a7oZwAb7tFa-syhKgHfZ-26" value="" style="shape=flexArrow;endArrow=classic;html=1;rounded=0;" edge="1" parent="1">
          <mxGeometry width="50" height="50" relative="1" as="geometry">
            <mxPoint x="510" y="369.76" as="sourcePoint" />
            <mxPoint x="580" y="369.76" as="targetPoint" />
          </mxGeometry>
        </mxCell>
        <mxCell id="a7oZwAb7tFa-syhKgHfZ-43" value="" style="edgeStyle=orthogonalEdgeStyle;rounded=0;orthogonalLoop=1;jettySize=auto;html=1;fontFamily=Helvetica;fontSize=14;fontColor=#030303;" edge="1" parent="1" source="a7oZwAb7tFa-syhKgHfZ-29" target="a7oZwAb7tFa-syhKgHfZ-42">
          <mxGeometry relative="1" as="geometry" />
        </mxCell>
        <mxCell id="a7oZwAb7tFa-syhKgHfZ-29" value="&lt;div style=&quot;background-color: rgb(255, 255, 255); font-weight: normal; font-size: 14px; line-height: 19px;&quot;&gt;&lt;div&gt;&lt;font style=&quot;font-size: 12px;&quot; face=&quot;Helvetica&quot; color=&quot;#030303&quot;&gt;LinearRegression&lt;/font&gt;&lt;/div&gt;&lt;/div&gt;" style="rounded=1;whiteSpace=wrap;html=1;" vertex="1" parent="1">
          <mxGeometry x="850" y="350" width="110" height="40" as="geometry" />
        </mxCell>
        <mxCell id="a7oZwAb7tFa-syhKgHfZ-30" value="Y1" style="rounded=0;whiteSpace=wrap;html=1;" vertex="1" parent="1">
          <mxGeometry x="590" y="320" width="30" height="120" as="geometry" />
        </mxCell>
        <mxCell id="a7oZwAb7tFa-syhKgHfZ-31" value="Y2" style="rounded=0;whiteSpace=wrap;html=1;" vertex="1" parent="1">
          <mxGeometry x="630" y="320" width="30" height="120" as="geometry" />
        </mxCell>
        <mxCell id="a7oZwAb7tFa-syhKgHfZ-32" value="Y3" style="rounded=0;whiteSpace=wrap;html=1;" vertex="1" parent="1">
          <mxGeometry x="670" y="320" width="30" height="120" as="geometry" />
        </mxCell>
        <mxCell id="a7oZwAb7tFa-syhKgHfZ-33" value="Y" style="rounded=0;whiteSpace=wrap;html=1;" vertex="1" parent="1">
          <mxGeometry x="710" y="320" width="30" height="120" as="geometry" />
        </mxCell>
        <mxCell id="a7oZwAb7tFa-syhKgHfZ-36" value="" style="shape=curlyBracket;whiteSpace=wrap;html=1;rounded=1;flipH=1;labelPosition=right;verticalLabelPosition=middle;align=left;verticalAlign=middle;fontFamily=Helvetica;fontSize=12;fontColor=#030303;rotation=-90;" vertex="1" parent="1">
          <mxGeometry x="635" y="245" width="20" height="110" as="geometry" />
        </mxCell>
        <mxCell id="a7oZwAb7tFa-syhKgHfZ-37" value="&lt;font style=&quot;font-size: 14px;&quot;&gt;X&lt;/font&gt;" style="text;strokeColor=none;fillColor=none;html=1;fontSize=24;fontStyle=1;verticalAlign=middle;align=center;fontFamily=Helvetica;fontColor=#030303;" vertex="1" parent="1">
          <mxGeometry x="595" y="255" width="100" height="30" as="geometry" />
        </mxCell>
        <mxCell id="a7oZwAb7tFa-syhKgHfZ-38" value="" style="shape=flexArrow;endArrow=classic;html=1;rounded=0;" edge="1" parent="1">
          <mxGeometry x="1" y="-10" width="50" height="50" relative="1" as="geometry">
            <mxPoint x="757" y="369.76000000000005" as="sourcePoint" />
            <mxPoint x="827" y="369.76000000000005" as="targetPoint" />
            <mxPoint x="10" y="-10" as="offset" />
          </mxGeometry>
        </mxCell>
        <mxCell id="a7oZwAb7tFa-syhKgHfZ-42" value="Y_pre" style="rounded=0;whiteSpace=wrap;html=1;" vertex="1" parent="1">
          <mxGeometry x="990" y="305" width="40" height="130" as="geometry" />
        </mxCell>
      </root>
    </mxGraphModel>
  </diagram>
</mxfile>
